# xmcd CD Database Entry
#
# Track frame offsets:
# 150
# 18587
# 39062
# 57455
# 77947
#
# Disc length: 1283 seconds
#
# Revision: 1
# Processed by: cddbd v1.4PL0 Copyright (c) Steve Scherf et al.
# Submitted via: tcd 2.0b
#
DISCID=36050105
DTITLE=EVANGELION - Zankoku na Tenshi no These/FLY ME TO THE MOON
DYEAR=1900
DGENRE=
TTITLE0=Zankoku na tenshi no these
TTITLE1=FLY ME TO THE MOON
TTITLE2=Zankoku na Tenshi no These (off vocal ver.)
TTITLE3=FLY ME TO THE MOON (off vocal ver.)
TTITLE4=Zankoku na Tenshi no These (Director's Edit)
EXTD=KICM-3041\n2003/03/26
EXTT0=Yoko Takahashi
EXTT1=CLAIRE\n
EXTT2=
EXTT3=
EXTT4=Yoko Takahashi
PLAYORDER=
